<?xml version="1.0" standalone="no"?>
<!-- Creator: fig2dev Version 3.2.6a -->
<!-- CreationDate: 2019-01-11 12:34:03 -->
<!-- Magnification: 1.05 -->
<svg	xmlns="http://www.w3.org/2000/svg"
	xmlns:xlink="http://www.w3.org/1999/xlink"
	width="484pt" height="351pt"
	viewBox="3138 300 7674 5565">
<g fill="none">
<!-- Line -->
<rect x="6075" y="1575" width="1800" height="675" rx="105"
	stroke="#000000" stroke-width="8px"/>
<!-- Line -->
<defs>
<clipPath id="cp0">
	<path clip-rule="evenodd" d="M 3138,300 H 10812 V 5865 H 3138 z
		M 5312,1830 5192,1800 5312,1770 5168,1793 5168,1807z"/>
</clipPath>
</defs>
<polyline points=" 5175,1800 6075,1800" clip-path="url(#cp0)"
	stroke="#000000" stroke-width="8px"/>
<!-- Backward arrow to point 5175,1800 -->
<polyline points=" 5312,1830 5192,1800 5312,1770"
	stroke="#000000" stroke-width="8px" stroke-miterlimit="8"/>
<!-- Line -->
<defs>
<clipPath id="cp1">
	<path clip-rule="evenodd" d="M 3138,300 H 10812 V 5865 H 3138 z
		M 5938,1995 6058,2025 5938,2055 6082,2032 6082,2018z
		M 5312,1830 5192,1800 5312,1770 5168,1793 5168,1807z"/>
</clipPath>
</defs>
<polyline points=" 5175,2025 6075,2025" clip-path="url(#cp1)"
	stroke="#000000" stroke-width="8px"/>
<!-- Forward arrow to point 6075,2025 -->
<polyline points=" 5938,1995 6058,2025 5938,2055"
	stroke="#000000" stroke-width="8px" stroke-miterlimit="8"/>
<!-- Line -->
<rect x="8775" y="1575" width="1800" height="675" rx="105"
	stroke="#000000" stroke-width="8px"/>
<!-- Line -->
<defs>
<clipPath id="cp2">
	<path clip-rule="evenodd" d="M 3138,300 H 10812 V 5865 H 3138 z
		M 8638,1770 8758,1800 8638,1830 8782,1807 8782,1793z
		M 5312,1830 5192,1800 5312,1770 5168,1793 5168,1807z"/>
</clipPath>
</defs>
<polyline points=" 7875,1800 8775,1800" clip-path="url(#cp2)"
	stroke="#000000" stroke-width="8px"/>
<!-- Forward arrow to point 8775,1800 -->
<polyline points=" 8638,1770 8758,1800 8638,1830"
	stroke="#000000" stroke-width="8px" stroke-miterlimit="8"/>
<!-- Line -->
<defs>
<clipPath id="cp3">
	<path clip-rule="evenodd" d="M 3138,300 H 10812 V 5865 H 3138 z
		M 8638,1770 8758,1800 8638,1830 8782,1807 8782,1793z
		M 8012,2055 7892,2025 8012,1995 7868,2018 7868,2032z"/>
</clipPath>
</defs>
<polyline points=" 7875,2025 8775,2025" clip-path="url(#cp3)"
	stroke="#000000" stroke-width="8px"/>
<!-- Backward arrow to point 7875,2025 -->
<polyline points=" 8012,2055 7892,2025 8012,1995"
	stroke="#000000" stroke-width="8px" stroke-miterlimit="8"/>
<!-- Line -->
<rect x="3375" y="1575" width="1800" height="675" rx="105"
	stroke="#000000" stroke-width="8px"/>
<!-- Line -->
<polyline points=" 5625,900 5625,5625"
	stroke="#000000" stroke-width="8px"/>
<!-- Line -->
<rect x="6075" y="3150" width="1800" height="675" rx="105"
	stroke="#000000" stroke-width="8px"/>
<!-- Line -->
<rect x="6075" y="4725" width="1800" height="675" rx="105"
	stroke="#000000" stroke-width="8px"/>
<!-- Line -->
<rect x="3375" y="4725" width="1800" height="675" rx="105"
	stroke="#000000" stroke-width="8px"/>
<!-- Line -->
<rect x="3375" y="3150" width="1800" height="675" rx="105"
	stroke="#000000" stroke-width="8px"/>
<!-- Line -->
<defs>
<clipPath id="cp4">
	<path clip-rule="evenodd" d="M 3138,300 H 10812 V 5865 H 3138 z
		M 4305,4588 4275,4708 4245,4588 4268,4732 4282,4732z
		M 8012,2055 7892,2025 8012,1995 7868,2018 7868,2032z"/>
</clipPath>
</defs>
<polyline points=" 4275,3825 4275,4725" clip-path="url(#cp4)"
	stroke="#000000" stroke-width="8px"/>
<!-- Forward arrow to point 4275,4725 -->
<polyline points=" 4305,4588 4275,4708 4245,4588"
	stroke="#000000" stroke-width="8px" stroke-miterlimit="8"/>
<!-- Line -->
<defs>
<clipPath id="cp5">
	<path clip-rule="evenodd" d="M 3138,300 H 10812 V 5865 H 3138 z
		M 4305,4588 4275,4708 4245,4588 4268,4732 4282,4732z
		M 5312,3405 5192,3375 5312,3345 5168,3368 5168,3382z"/>
</clipPath>
</defs>
<polyline points=" 5175,3375 6075,3375" clip-path="url(#cp5)"
	stroke="#000000" stroke-width="8px"/>
<!-- Backward arrow to point 5175,3375 -->
<polyline points=" 5312,3405 5192,3375 5312,3345"
	stroke="#000000" stroke-width="8px" stroke-miterlimit="8"/>
<!-- Line -->
<defs>
<clipPath id="cp6">
	<path clip-rule="evenodd" d="M 3138,300 H 10812 V 5865 H 3138 z
		M 4305,4588 4275,4708 4245,4588 4268,4732 4282,4732z
		M 6945,3962 6975,3842 7005,3962 6982,3818 6968,3818z"/>
</clipPath>
</defs>
<polyline points=" 6975,3825 6975,4725" clip-path="url(#cp6)"
	stroke="#000000" stroke-width="8px"/>
<!-- Backward arrow to point 6975,3825 -->
<polyline points=" 6945,3962 6975,3842 7005,3962"
	stroke="#000000" stroke-width="8px" stroke-miterlimit="8"/>
<!-- Line -->
<defs>
<clipPath id="cp7">
	<path clip-rule="evenodd" d="M 3138,300 H 10812 V 5865 H 3138 z
		M 5938,5145 6058,5175 5938,5205 6082,5182 6082,5168z
		M 6945,3962 6975,3842 7005,3962 6982,3818 6968,3818z"/>
</clipPath>
</defs>
<polyline points=" 5175,5175 6075,5175" clip-path="url(#cp7)"
	stroke="#000000" stroke-width="8px"/>
<!-- Forward arrow to point 6075,5175 -->
<polyline points=" 5938,5145 6058,5175 5938,5205"
	stroke="#000000" stroke-width="8px" stroke-miterlimit="8"/>
<!-- Line -->
<defs>
<clipPath id="cp8">
	<path clip-rule="evenodd" d="M 3138,300 H 10812 V 5865 H 3138 z
		M 5938,3570 6058,3600 5938,3630 6082,3607 6082,3593z
		M 6945,3962 6975,3842 7005,3962 6982,3818 6968,3818z"/>
</clipPath>
</defs>
<polyline points=" 5175,3600 6075,3600" clip-path="url(#cp8)"
	stroke="#000000" stroke-width="8px"/>
<!-- Forward arrow to point 6075,3600 -->
<polyline points=" 5938,3570 6058,3600 5938,3630"
	stroke="#000000" stroke-width="8px" stroke-miterlimit="8"/>
<!-- Line -->
<polyline points=" 3150,2700 10800,2700"
	stroke="#000000" stroke-width="8px" stroke-dasharray="40 40"/>
<!-- Text -->
<text xml:space="preserve" x="5535" y="900" fill="#000000" font-family="Times" font-style="normal" font-weight="normal" font-size="144" text-anchor="start">OS</text>
<!-- Text -->
<text xml:space="preserve" x="6300" y="1125" fill="#000000" font-family="Times" font-style="normal" font-weight="normal" font-size="144" text-anchor="start">Server side</text>
<!-- Text -->
<text xml:space="preserve" x="5400" y="1800" fill="#000000" font-family="Times" font-style="normal" font-weight="normal" font-size="144" text-anchor="start">Dequeue</text>
<!-- Text -->
<text xml:space="preserve" x="5400" y="2025" fill="#000000" font-family="Times" font-style="normal" font-weight="normal" font-size="144" text-anchor="start">Enqueue</text>
<!-- Text -->
<text xml:space="preserve" x="8100" y="1800" fill="#000000" font-family="Times" font-style="normal" font-weight="normal" font-size="144" text-anchor="start">Acquire</text>
<!-- Text -->
<text xml:space="preserve" x="8100" y="2025" fill="#000000" font-family="Times" font-style="normal" font-weight="normal" font-size="144" text-anchor="start">Release</text>
<!-- Text -->
<text xml:space="preserve" x="6525" y="2025" fill="#000000" font-family="Times" font-style="normal" font-weight="normal" font-size="144" text-anchor="start">BufferQueue</text>
<!-- Text -->
<text xml:space="preserve" x="3825" y="2025" fill="#000000" font-family="Times" font-style="normal" font-weight="normal" font-size="144" text-anchor="start">Producer</text>
<!-- Text -->
<text xml:space="preserve" x="9225" y="2025" fill="#000000" font-family="Times" font-style="normal" font-weight="normal" font-size="144" text-anchor="start">Consumer</text>
<!-- Text -->
<text xml:space="preserve" x="4050" y="1125" fill="#000000" font-family="Times" font-style="normal" font-weight="normal" font-size="144" text-anchor="start">Client side</text>
<!-- Text -->
<text xml:space="preserve" x="4950" y="450" fill="#000000" font-family="Times" font-style="normal" font-weight="normal" font-size="144" text-anchor="start">Resource Pool Pattern</text>
<!-- Text -->
<text xml:space="preserve" x="3825" y="3600" fill="#000000" font-family="Times" font-style="normal" font-weight="normal" font-size="144" text-anchor="start">Dequeued</text>
<!-- Text -->
<text xml:space="preserve" x="3825" y="5175" fill="#000000" font-family="Times" font-style="normal" font-weight="normal" font-size="144" text-anchor="start">Enqueued</text>
<!-- Text -->
<text xml:space="preserve" x="6525" y="5175" fill="#000000" font-family="Times" font-style="normal" font-weight="normal" font-size="144" text-anchor="start">Acquired</text>
<!-- Text -->
<text xml:space="preserve" x="6525" y="3600" fill="#000000" font-family="Times" font-style="normal" font-weight="normal" font-size="144" text-anchor="start">Free</text>
<!-- Text -->
<text xml:space="preserve" x="5400" y="3375" fill="#000000" font-family="Times" font-style="normal" font-weight="normal" font-size="144" text-anchor="start">Dequeue</text>
<!-- Text -->
<text xml:space="preserve" x="5400" y="3600" fill="#000000" font-family="Times" font-style="normal" font-weight="normal" font-size="144" text-anchor="start">Cancel</text>
<!-- Text -->
<text xml:space="preserve" x="4050" y="4275" fill="#000000" font-family="Times" font-style="normal" font-weight="normal" font-size="144" text-anchor="start">Enqueue</text>
<!-- Text -->
<text xml:space="preserve" x="5400" y="5175" fill="#000000" font-family="Times" font-style="normal" font-weight="normal" font-size="144" text-anchor="start">Acquire</text>
<!-- Text -->
<text xml:space="preserve" x="6750" y="4275" fill="#000000" font-family="Times" font-style="normal" font-weight="normal" font-size="144" text-anchor="start">Release</text>
<!-- Text -->
<text xml:space="preserve" x="4950" y="5850" fill="#000000" font-family="Times" font-style="normal" font-weight="normal" font-size="144" text-anchor="start">Resource State</text>
</g>
</svg>
